<?xml version="1.0" encoding="UTF-8" standalone="no"?>
<!-- Created with Inkscape (http://www.inkscape.org/) -->

<svg
    xmlns:dc="http://purl.org/dc/elements/1.1/"
    xmlns:cc="http://creativecommons.org/ns#"
    xmlns:rdf="http://www.w3.org/1999/02/22-rdf-syntax-ns#"
    xmlns="http://www.w3.org/2000/svg"
    xmlns:sodipodi="http://sodipodi.sourceforge.net/DTD/sodipodi-0.dtd"
    xmlns:inkscape="http://www.inkscape.org/namespaces/inkscape"
    width="196.81818"
    height="196.81818"
    id="svg3856"
    version="1.1"
    inkscape:version="0.48.5 r10040"
    sodipodi:docname="Power_socket_icon.svg">
    <defs
        id="defs3858"/>
    <sodipodi:namedview
        id="base"
        pagecolor="#ffffff"
        bordercolor="#666666"
        borderopacity="1.0"
        inkscape:pageopacity="0.0"
        inkscape:pageshadow="2"
        inkscape:zoom="15.839192"
        inkscape:cx="89.449724"
        inkscape:cy="98.04216"
        inkscape:document-units="px"
        inkscape:current-layer="layer1"
        showgrid="false"
        inkscape:window-width="1600"
        inkscape:window-height="856"
        inkscape:window-x="-2"
        inkscape:window-y="-3"
        inkscape:window-maximized="1"
        fit-margin-top="0"
        fit-margin-left="0"
        fit-margin-right="0"
        fit-margin-bottom="0"/>
    <metadata
        id="metadata3861">
        <rdf:RDF>
            <cc:Work
                rdf:about="">
                <dc:format>image/svg+xml</dc:format>
                <dc:type
                    rdf:resource="http://purl.org/dc/dcmitype/StillImage"/>
                <dc:title/>
            </cc:Work>
        </rdf:RDF>
    </metadata>
    <g
        inkscape:label="Layer 1"
        inkscape:groupmode="layer"
        id="layer1"
        transform="translate(-26.590912,-828.95306)">
        <rect
            style="fill:#ffffff;fill-opacity:1;stroke:#000000;stroke-width:10;stroke-linecap:round;stroke-linejoin:round;stroke-miterlimit:4;stroke-opacity:1;stroke-dasharray:none"
            id="rect3864"
            width="186.81818"
            height="186.81818"
            x="31.590912"
            y="833.95306"
            ry="30.790314"/>
        <path
            sodipodi:type="arc"
            style="fill:#ffffff;fill-opacity:1;stroke:#000000;stroke-width:7.5529356;stroke-linecap:round;stroke-linejoin:round;stroke-miterlimit:4;stroke-opacity:1;stroke-dasharray:none"
            id="path4374"
            sodipodi:cx="118.94547"
            sodipodi:cy="124.23601"
            sodipodi:rx="44.699249"
            sodipodi:ry="36.36549"
            d="m 163.64472,124.23601 c 0,20.0841 -20.01253,36.36549 -44.69925,36.36549 -24.686711,0 -44.699247,-16.28139 -44.699247,-36.36549 0,-20.08411 20.012536,-36.365492 44.699247,-36.365492 24.68672,0 44.69925,16.281382 44.69925,36.365492 z"
            transform="matrix(1.1942048,0,0,1.4678768,-17.045254,744.99903)"/>
        <path
            sodipodi:type="arc"
            style="fill:#000000;fill-opacity:1;stroke:none"
            id="path4376"
            sodipodi:cx="102.53049"
            sodipodi:cy="126.00378"
            sodipodi:rx="3.0304577"
            sodipodi:ry="2.2728431"
            d="m 105.56094,126.00378 c 0,1.25525 -1.35678,2.27284 -3.03045,2.27284 -1.67368,0 -3.030461,-1.01759 -3.030461,-2.27284 0,-1.25526 1.356781,-2.27285 3.030461,-2.27285 1.67367,0 3.03045,1.01759 3.03045,2.27285 z"
            transform="matrix(2.4748737,0,0,3.2998318,-148.75001,511.57091)"/>
        <path
            sodipodi:type="arc"
            style="fill:#000000;fill-opacity:1;stroke:none"
            id="path4376-4"
            sodipodi:cx="102.53049"
            sodipodi:cy="126.00378"
            sodipodi:rx="3.0304577"
            sodipodi:ry="2.2728431"
            d="m 105.56094,126.00378 c 0,1.25525 -1.35678,2.27284 -3.03045,2.27284 -1.67368,0 -3.030461,-1.01759 -3.030461,-2.27284 0,-1.25526 1.356781,-2.27285 3.030461,-2.27285 1.67367,0 3.03045,1.01759 3.03045,2.27285 z"
            transform="matrix(2.4748737,0,0,3.2998318,-108.75001,511.57091)"/>
        <rect
            style="fill:#000000;fill-opacity:1;stroke:none"
            id="rect4396"
            width="8"
            height="18"
            x="121"
            y="872.36218"
            ry="3"/>
        <rect
            style="fill:#000000;fill-opacity:1;stroke:none"
            id="rect4396-9"
            width="8"
            height="18"
            x="121"
            y="964.36218"
            ry="3"/>
        <path
            sodipodi:type="arc"
            style="fill:none;stroke:#ff0000;stroke-width:10.55042696;stroke-linecap:square;stroke-linejoin:round;stroke-miterlimit:4;stroke-opacity:1;stroke-dasharray:none"
            id="path3761"
            sodipodi:cx="76.519058"
            sodipodi:cy="96.813072"
            sodipodi:rx="3.0304575"
            sodipodi:ry="3.0304575"
            d="m 79.549516,96.813072 a 3.0304575,3.0304575 0 1 1 -6.060915,0 3.0304575,3.0304575 0 1 1 6.060915,0 z"
            transform="matrix(0.94782895,0,0,0.94782893,32.664034,836.39751)"/>
        <path
            sodipodi:type="arc"
            style="fill:none;stroke:#ff0000;stroke-width:9.97067425;stroke-linecap:square;stroke-linejoin:round;stroke-miterlimit:4;stroke-opacity:1;stroke-dasharray:none"
            id="path3765"
            sodipodi:cx="118.125"
            sodipodi:cy="99.764603"
            sodipodi:rx="2.5892856"
            sodipodi:ry="2.5892856"
            d="m 120.71429,99.764603 a 2.5892856,2.5892856 0 1 1 -5.17858,0 2.5892856,2.5892856 0 1 1 5.17858,0 z"
            transform="matrix(1.0029412,0,0,1.0029412,26.667593,828.1016)"/>
        <path
            style="fill:none;stroke:#ff0000;stroke-width:10;stroke-linecap:round;stroke-linejoin:miter;stroke-miterlimit:4;stroke-opacity:1;stroke-dasharray:none"
            d="m 125.04691,877.2085 0,8.1929"
            id="path3769"
            inkscape:connector-curvature="0"/>
        <path
            style="fill:none;stroke:#ff0000;stroke-width:10;stroke-linecap:round;stroke-linejoin:miter;stroke-miterlimit:4;stroke-opacity:1;stroke-dasharray:none"
            d="m 125.01765,969.33626 0,8.1929"
            id="path3769-7"
            inkscape:connector-curvature="0"/>
    </g>
    <g
        inkscape:groupmode="layer"
        id="layer2"
        inkscape:label="Layer">
        <rect
            style="fill:none;stroke:#ff0000;stroke-width:10;stroke-linecap:square;stroke-linejoin:round;stroke-miterlimit:4;stroke-opacity:1;stroke-dasharray:none"
            id="rect2989"
            width="186.66518"
            height="187.26965"
            x="5.0172205"
            y="4.6660199"
            rx="30.209602"/>
        <path
            sodipodi:type="arc"
            style="fill:none;stroke:#ff0000;stroke-width:7.74695711;stroke-linecap:square;stroke-linejoin:round;stroke-miterlimit:4;stroke-opacity:1;stroke-dasharray:none"
            id="path3759"
            sodipodi:cx="134.60283"
            sodipodi:cy="136.20903"
            sodipodi:rx="40.153564"
            sodipodi:ry="40.153564"
            d="m 174.75639,136.20903 a 40.153564,40.153564 0 1 1 -80.307125,0 40.153564,40.153564 0 1 1 80.307125,0 z"
            transform="matrix(1.2908294,0,0,1.2908294,-75.25941,-77.494307)"/>
    </g>
</svg>
